<svg height="512pt" viewBox="0 -17 512 511" width="512pt" xmlns="http://www.w3.org/2000/svg"><g fill-rule="evenodd"><path d="m10 117.890625h492v277.988281h-492zm0 0" fill="#88c9f7"/><path d="m80.425781 69.269531h69.925781v223.03125h-69.925781zm0 0" fill="#fed049"/><path d="m115.390625 344.746094 34.960937-52.445313h-69.925781l17.480469 26.222657zm0 0" fill="#fa5c66"/><path d="m100.054688 10.5h30.667968c10.796875 0 19.628906 8.832031 19.628906 19.628906v39.140625h-69.925781v-39.140625c0-10.796875 8.832031-19.628906 19.628907-19.628906zm0 0" fill="#fa5c66"/><path d="m502 107.890625h-341.648438v-77.761719c0-16.335937-13.289062-29.628906-29.628906-29.628906h-30.667968c-16.339844 0-29.628907 13.292969-29.628907 29.628906v77.761719h-60.425781c-5.523438 0-10 4.476563-10 10v277.988281c0 5.519532 4.476562 10 10 10h218.296875l-64.746094 53.742188c-4.25 3.527344-4.835937 9.832031-1.308593 14.082031 3.527343 4.246094 9.832031 4.835937 14.082031 1.308594l79.675781-66.140625 79.675781 66.140625c1.867188 1.546875 4.128907 2.304687 6.378907 2.304687 2.875 0 5.722656-1.230468 7.703124-3.613281 3.523438-4.25 2.941407-10.554687-1.308593-14.082031l-64.746094-53.742188h218.296875c5.523438 0 10-4.480468 10-10v-277.988281c0-5.523437-4.476562-10-10-10zm-411.574219-77.761719c0-5.308594 4.316407-9.628906 9.628907-9.628906h30.667968c5.308594 0 9.628906 4.320312 9.628906 9.628906v29.140625h-49.925781zm401.574219 355.75h-472v-257.988281h50.425781v34.042969c0 5.519531 4.476563 10 10 10 5.519531 0 10-4.480469 10-10v-82.664063h49.925781v203.03125h-49.925781v-40.367187c0-5.523438-4.480469-10-10-10-5.523437 0-10 4.476562-10 10v50.367187c0 .101563.011719.199219.015625.300781 0 .125.007813.25.019532.375.019531.324219.058593.640626.105468.953126.015625.082031.023438.164062.039063.246093.078125.410157.179687.808594.304687 1.199219.015625.042969.03125.085938.046875.128906.117188.347656.257813.6875.410157 1.019532.042968.085937.082031.171874.125.253906.179687.355468.371093.699218.585937 1.027344.011719.015624.019531.03125.027344.042968l.015625.023438c.007812.011718.015625.023437.023437.035156l34.925781 52.386719c1.851563 2.78125 4.976563 4.453125 8.320313 4.453125s6.464844-1.671875 8.320313-4.453125l34.921874-52.386719c.007813-.011719.015626-.023438.023438-.035156l.015625-.023438c.011719-.011718.015625-.027344.023437-.042968.21875-.328126.410157-.671876.589844-1.027344.042969-.082032.082032-.167969.121094-.253906.15625-.332032.292969-.671876.414062-1.019532.015626-.042968.03125-.085937.046876-.128906.125-.390625.226562-.789062.304687-1.199219.015625-.082031.023437-.164062.039063-.246093.050781-.316407.085937-.628907.105468-.953126.011719-.125.019532-.25.019532-.375.003906-.101562.015624-.199218.015624-.300781v-164.410156h331.648438zm-360.332031-83.578125-16.277344 24.417969-16.28125-24.417969zm0 0"/><path d="m284.941406 266.882812h166.03125c5.519532 0 10-4.476562 10-10 0-5.519531-4.480468-10-10-10h-166.03125c-5.523437 0-10 4.480469-10 10 0 5.523438 4.476563 10 10 10zm0 0"/><path d="m284.941406 222.328125h166.03125c5.519532 0 10-4.480469 10-10 0-5.523437-4.480468-10-10-10h-166.03125c-5.523437 0-10 4.476563-10 10s4.476563 10 10 10zm0 0"/><path d="m284.941406 177.769531h166.03125c5.519532 0 10-4.476562 10-10 0-5.523437-4.480468-10-10-10h-166.03125c-5.523437 0-10 4.476563-10 10 0 5.523438 4.476563 10 10 10zm0 0"/><path d="m284.941406 311.441406h166.03125c5.519532 0 10-4.476562 10-10 0-5.523437-4.480468-10-10-10h-166.03125c-5.523437 0-10 4.476563-10 10 0 5.523438 4.476563 10 10 10zm0 0"/><path d="m215.632812 311.441406h29.703126c5.519531 0 10-4.476562 10-10 0-5.523437-4.480469-10-10-10h-29.703126c-5.523437 0-10 4.476563-10 10 0 5.523438 4.476563 10 10 10zm0 0"/><path d="m215.632812 222.328125h29.703126c5.519531 0 10-4.480469 10-10 0-5.523437-4.480469-10-10-10h-29.703126c-5.523437 0-10 4.476563-10 10s4.476563 10 10 10zm0 0"/><path d="m215.632812 266.882812h29.703126c5.519531 0 10-4.476562 10-10 0-5.519531-4.480469-10-10-10h-29.703126c-5.523437 0-10 4.480469-10 10 0 5.523438 4.476563 10 10 10zm0 0"/><path d="m284.941406 355.996094h166.03125c5.519532 0 10-4.476563 10-10 0-5.519532-4.480468-10-10-10h-166.03125c-5.523437 0-10 4.480468-10 10 0 5.523437 4.476563 10 10 10zm0 0"/><path d="m245.335938 335.996094h-29.703126c-5.523437 0-10 4.480468-10 10 0 5.523437 4.476563 10 10 10h29.703126c5.519531 0 10-4.476563 10-10 0-5.519532-4.480469-10-10-10zm0 0"/><path d="m215.632812 177.769531h29.703126c5.519531 0 10-4.476562 10-10 0-5.523437-4.480469-10-10-10h-29.703126c-5.523437 0-10 4.476563-10 10 0 5.523438 4.476563 10 10 10zm0 0"/><path d="m80.425781 211.933594c5.507813 0 10-4.492188 10-10 0-5.507813-4.492187-10-10-10-5.507812 0-10 4.492187-10 10 0 5.507812 4.492188 10 10 10zm0 0"/></g></svg>